<svg xmlns="http://www.w3.org/2000/svg" viewBox="0 0 64 64" role="img" aria-label="Nexus Media logo">
  <rect width="64" height="64" rx="16" fill="#000000"/>
  <path d="M18 15.5c0-1.9 2.1-3 3.7-1.9l12.3 8c1.2.8 1.2 2.5 0 3.3l-12.3 8c-1.6 1.1-3.7 0-3.7-1.9V15.5Z" fill="#f8fafc"/>
  <path d="M46 15.5c0-1.9-2.1-3-3.7-1.9l-12.3 8c-1.2.8-1.2 2.5 0 3.3l12.3 8c1.6 1.1 3.7 0 3.7-1.9V15.5Z" fill="#f8fafc"/>
  <path d="M22.5 27.5c0-2 2.3-3.2 4-2.1l5.5 3.6c.8.5 1.8.5 2.6 0l5.5-3.6c1.7-1.1 4 0.1 4 2.1v9c0 2-2.3 3.2-4 2.1l-5.5-3.6c-.8-.5-1.8-.5-2.6 0l-5.5 3.6c-1.7 1.1-4-.1-4-2.1v-9Z" fill="#0ea5e9"/>
</svg>